<?xml version="1.0" encoding="utf-8"?>
<!-- Generator: Adobe Illustrator 26.3.1, SVG Export Plug-In . SVG Version: 6.00 Build 0)  -->
<svg version="1.1" xmlns="http://www.w3.org/2000/svg" xmlns:xlink="http://www.w3.org/1999/xlink" x="0px" y="0px" width="32px"
	 height="32px" viewBox="0 0 32 32" style="enable-background:new 0 0 32 32;" xml:space="preserve">
<style type="text/css">
	.st0{display:none;}
	.st1{display:inline;fill:none;}
	.st2{display:inline;}
	.st3{fill:#FFFFFF;}
	.st4{display:inline;fill:#FFFFFF;}
	.st5{fill:none;}
</style>
<g id="Layer_1" class="st0">
	<g id="Layer_1_00000160182947873553858050000002351563301927866757_">
		<rect class="st1" width="32" height="32"/>
		<g class="st2">
			<path class="st3" d="M1.3,14C0.6,14,0,13.4,0,12.7V1.3C0,0.6,0.6,0,1.3,0c0.3,0,0.5,0.1,0.8,0.3l9.4,7.1c0.4,0.3,0.6,0.9,0.4,1.4
				c-0.2,0.5-0.7,0.9-1.2,0.9H5.6l-3.3,3.9C2,13.8,1.7,14,1.3,14L1.3,14z"/>
		</g>
		<g class="st2">
			<path d="M1,1.3v11.5c0,0.3,0.3,0.4,0.5,0.2L5,8.8c0.1-0.1,0.1-0.1,0.2-0.1h5.5c0.3,0,0.4-0.3,0.2-0.5L1.5,1.1C1.3,0.9,1,1,1,1.3z
				"/>
		</g>
		<circle class="st4" cx="20" cy="8" r="2"/>
		<path class="st4" d="M27.6,19.8L27.6,19.8L27.6,19.8c0.2-0.2,0.4-0.3,0.7-0.5l0.1-0.1c0.2-0.1,0.3-0.2,0.5-0.4
			c0.1-0.1,0.3-0.2,0.3-0.2c0.2-0.2,0.5-0.4,0.7-0.7l0.2-0.2c0.2-0.2,0.3-0.3,0.4-0.5l0.1-0.1l0,0c0.6-0.8,0.5-2-0.3-2.7
			c-0.4-0.3-0.8-0.5-1.3-0.5c-0.6,0-1.1,0.2-1.5,0.7c-0.5,0.5-1,1-1.6,1.4l-1.7-3.8c1.1-1,1.8-2.5,1.8-4.2c0-2.6-1.6-4.8-4-5.7V2
			c0-1.1-0.9-2-2-2s-2,0.9-2,2v0.3c-2.4,0.8-4,3.1-4,5.7c0,1.7,0.7,3.2,1.8,4.3l-3.4,7.6L9,27.3V32l3.8-2.9l3.4-7.7h0.1l0.3,0.1
			c0.3,0.1,0.6,0.1,0.9,0.2c0.2,0,0.3,0.1,0.5,0.1h0.1c0.2,0,0.4,0.1,0.5,0.1c0.4,0,0.9,0.1,1.3,0.1s0.9,0,1.3-0.1
			c0.3,0,0.5-0.1,0.9-0.1c0.1,0,0.2,0,0.3-0.1c0.3-0.1,0.7-0.1,1-0.2h0.1c0.1,0,0.1,0,0.2-0.1l3.4,7.7L31,32v-4.7L27.6,19.8z M20,6
			c1.1,0,2,0.9,2,2s-0.9,2-2,2s-2-0.9-2-2S18.9,6,20,6z M20,18c-0.7,0-1.4-0.1-2.2-0.2l1.7-3.8c0.2,0,0.3,0,0.5,0s0.3,0,0.5,0
			l1.7,3.8C21.4,17.9,20.7,18,20,18z"/>
		<g class="st2">
			<circle cx="20" cy="8" r="1"/>
			<path d="M20,13c2.8,0,5-2.2,5-5c0-2.4-1.7-4.4-4-4.9V2c0-0.6-0.4-1-1-1s-1,0.4-1,1v1.1c-2.3,0.5-4,2.5-4,4.9
				C15,10.7,17.2,13,20,13z M20,5c1.7,0,3,1.3,3,3s-1.3,3-3,3s-3-1.3-3-3S18.3,5,20,5z"/>
			<path d="M26.3,19.4L26.3,19.4c0.5-0.3,0.9-0.6,1.4-0.9c0.2-0.1,0.4-0.3,0.5-0.4s0.2-0.1,0.3-0.2c0.2-0.2,0.5-0.4,0.7-0.6
				c0.1-0.1,0.1-0.1,0.2-0.2c0.2-0.2,0.3-0.3,0.5-0.5c0.3-0.4,0.3-1-0.1-1.3c-0.4-0.4-1-0.3-1.4,0.1c-0.8,0.9-1.7,1.6-2.7,2.2
				L24,13.9c-0.6,0.4-1.2,0.7-1.9,0.9l1.6,3.7C22.4,18.8,21.2,19,20,19s-2.4-0.2-3.5-0.6l1.6-3.7c-0.7-0.2-1.3-0.5-1.9-0.9l-2.5,5.5
				c0.6,0.4,1.3,0.6,2,0.9c0.3,0.1,0.6,0.2,0.9,0.3c0.1,0,0.2,0,0.2,0.1c0.3,0.1,0.5,0.1,0.8,0.2c0.2,0,0.3,0.1,0.5,0.1
				s0.4,0.1,0.6,0.1c0.4,0,0.8,0.1,1.2,0.1c0.4,0,0.8,0,1.2-0.1c0.2,0,0.5-0.1,0.7-0.1c0.1,0,0.3,0,0.4-0.1c0.3-0.1,0.6-0.1,0.9-0.2
				h0.1c0.3-0.1,0.7-0.2,1-0.3l0,0C25,20,25.7,19.7,26.3,19.4z"/>
			<path d="M27.1,21.2c-0.6,0.3-1.3,0.6-2,0.9l2.8,6.4l2,1.5v-2.5L27.1,21.2z"/>
			<path d="M10,27.5V30l2-1.5l2.8-6.4c-0.7-0.2-1.3-0.5-2-0.9L10,27.5z"/>
		</g>
	</g>
	<g id="Layer_2_00000121253896656987859700000013330427612671392653_" class="st2">
		<rect class="st5" width="32" height="32"/>
		<g>
			<path class="st3" d="M1.3,14C0.6,14,0,13.4,0,12.7V1.3C0,0.6,0.6,0,1.3,0c0.3,0,0.5,0.1,0.8,0.3l9.4,7.1c0.4,0.3,0.6,0.9,0.4,1.4
				c-0.2,0.5-0.7,0.9-1.2,0.9H5.6l-3.3,3.9C2,13.8,1.7,14,1.3,14L1.3,14z"/>
		</g>
		<g>
			<path d="M1,1.3v11.5c0,0.3,0.3,0.4,0.5,0.2L5,8.8c0.1-0.1,0.1-0.1,0.2-0.1h5.5c0.3,0,0.4-0.3,0.2-0.5L1.5,1.1C1.3,0.9,1,1,1,1.3z
				"/>
		</g>
		<path class="st3" d="M30,32c-1.1,0-2-0.9-2-2v-1.1l-2.5,2.5c-0.4,0.4-0.9,0.6-1.4,0.6s-1-0.2-1.4-0.6s-0.6-0.9-0.6-1.4
			s0.2-1,0.6-1.4l0.6-0.6H8.7l0.6,0.6C9.7,29,9.9,29.5,9.9,30s-0.2,1-0.6,1.4S8.4,32,7.9,32s-1-0.2-1.4-0.6L4,28.9V30
			c0,1.1-0.9,2-2,2s-2-0.9-2-2v-8c0-1.1,0.9-2,2-2s2,0.9,2,2v1.1l2.5-2.5C6.9,20.2,7.4,20,7.9,20s1,0.2,1.4,0.6s0.6,0.9,0.6,1.4
			s-0.2,1-0.6,1.4L8.7,24h14.6l-0.6-0.6c-0.4-0.4-0.6-0.9-0.6-1.4s0.2-1,0.6-1.4s0.9-0.6,1.4-0.6s1,0.2,1.4,0.6l2.5,2.5V22
			c0-1.1,0.9-2,2-2s2,0.9,2,2v8C32,31.1,31.1,32,30,32z"/>
		<path d="M30,21c-0.6,0-1,0.4-1,1v3.6c0-0.1-0.1-0.2-0.2-0.3l-4-4c-0.4-0.4-1-0.4-1.4,0s-0.4,1,0,1.4l2.3,2.3H6.3l2.3-2.3
			c0.4-0.4,0.4-1,0-1.4s-1-0.4-1.4,0l-4,4C3.1,25.4,3,25.5,3,25.6V22c0-0.6-0.4-1-1-1s-1,0.4-1,1v8c0,0.6,0.4,1,1,1s1-0.4,1-1v-3.6
			c0,0.1,0.1,0.2,0.2,0.3l4,4C7.4,30.9,7.6,31,7.9,31c0.3,0,0.5-0.1,0.7-0.3c0.4-0.4,0.4-1,0-1.4L6.3,27h19.4l-2.3,2.3
			c-0.4,0.4-0.4,1,0,1.4c0.2,0.2,0.5,0.3,0.7,0.3s0.5-0.1,0.7-0.3l4-4c0.1-0.1,0.1-0.2,0.2-0.3V30c0,0.6,0.4,1,1,1s1-0.4,1-1v-8
			C31,21.4,30.6,21,30,21z"/>
	</g>
</g>
<g id="Layer_2">
	<path class="st3" d="M30,10H12c-1.1,0-2,0.9-2,2v18c0,1.1,0.9,2,2,2h18c1.1,0,2-0.9,2-2V12C32,10.9,31.1,10,30,10z M28,16.8v1.4
		c-0.3-0.2-0.6-0.3-1-0.3c-0.1,0-0.1,0-0.2,0L28,16.8z M24,15.2c0-0.1,0-0.1,0-0.2c0-0.4-0.1-0.7-0.3-1h1.4L24,15.2z M19,15.2
		c0-0.1,0-0.1,0-0.2c0-0.4-0.1-0.7-0.3-1h1.4L19,15.2z M14,20.2v-1.4c0.3,0.2,0.6,0.3,1,0.3c0.1,0,0.1,0,0.2,0L14,20.2z M15.2,24
		L14,25.2v-1.4c0.3,0.2,0.6,0.3,1,0.3C15.1,24,15.1,24,15.2,24z M18,26.8c0,0.1,0,0.1,0,0.2c0,0.4,0.1,0.7,0.3,1h-1.4L18,26.8z
		 M23,26.8c0,0.1,0,0.1,0,0.2c0,0.4,0.1,0.7,0.3,1h-1.4L23,26.8z M28,21.8v1.4c-0.3-0.2-0.6-0.3-1-0.3c-0.1,0-0.1,0-0.2,0L28,21.8z
		 M15.2,14L14,15.2V14H15.2z M26.8,28l1.2-1.2V28H26.8z"/>
	<rect class="st5" width="32" height="32"/>
	<g>
		<path class="st3" d="M1.3,14C0.6,14,0,13.4,0,12.7V1.3C0,0.6,0.6,0,1.3,0c0.3,0,0.5,0.1,0.8,0.3l9.4,7.1c0.4,0.3,0.6,0.9,0.4,1.4
			c-0.2,0.5-0.7,0.9-1.2,0.9l-5.1,0l-3.3,3.9C2,13.8,1.7,14,1.3,14L1.3,14z"/>
	</g>
	<g>
		<path d="M1,1.3v11.5c0,0.3,0.3,0.4,0.5,0.2L5,8.8c0.1-0.1,0.1-0.1,0.2-0.1l5.5,0c0.3,0,0.4-0.3,0.2-0.5L1.5,1.1C1.3,0.9,1,1,1,1.3
			z"/>
	</g>
	<g>
		<path d="M30,31H12c-0.6,0-1-0.4-1-1V12c0-0.6,0.4-1,1-1h18c0.6,0,1,0.4,1,1v18C31,30.6,30.6,31,30,31z M13,29h16V13H13V29z"/>
		<path d="M15,28c-0.3,0-0.5-0.1-0.7-0.3c-0.4-0.4-0.4-1,0-1.4l12-12c0.4-0.4,1-0.4,1.4,0s0.4,1,0,1.4l-12,12
			C15.5,27.9,15.3,28,15,28z"/>
		<path d="M15,23c-0.3,0-0.5-0.1-0.7-0.3c-0.4-0.4-0.4-1,0-1.4l7-7c0.4-0.4,1-0.4,1.4,0s0.4,1,0,1.4l-7,7C15.5,22.9,15.3,23,15,23z"
			/>
		<path d="M20,28c-0.3,0-0.5-0.1-0.7-0.3c-0.4-0.4-0.4-1,0-1.4l7-7c0.4-0.4,1-0.4,1.4,0s0.4,1,0,1.4l-7,7C20.5,27.9,20.3,28,20,28z"
			/>
		<path d="M15,18c-0.3,0-0.5-0.1-0.7-0.3c-0.4-0.4-0.4-1,0-1.4l2-2c0.4-0.4,1-0.4,1.4,0s0.4,1,0,1.4l-2,2C15.5,17.9,15.3,18,15,18z"
			/>
		<path d="M25,28c-0.3,0-0.5-0.1-0.7-0.3c-0.4-0.4-0.4-1,0-1.4l2-2c0.4-0.4,1-0.4,1.4,0s0.4,1,0,1.4l-2,2C25.5,27.9,25.3,28,25,28z"
			/>
	</g>
</g>
</svg>
