<?xml version="1.0" encoding="utf-8"?>
<!-- Generator: Adobe Illustrator 26.3.1, SVG Export Plug-In . SVG Version: 6.00 Build 0)  -->
<svg version="1.1" xmlns="http://www.w3.org/2000/svg" xmlns:xlink="http://www.w3.org/1999/xlink" x="0px" y="0px" width="32px"
	 height="32px" viewBox="0 0 32 32" style="enable-background:new 0 0 32 32;" xml:space="preserve">
<style type="text/css">
	.st0{display:none;}
	.st1{display:inline;fill:none;}
	.st2{display:inline;}
	.st3{fill:#FFFFFF;}
	.st4{display:inline;fill:#FFFFFF;}
	.st5{opacity:0.27;fill:none;}
</style>
<g id="Layer_1" class="st0">
	<rect class="st1" width="32" height="32"/>
	<g class="st2">
		<path class="st3" d="M1.3,14C0.6,14,0,13.4,0,12.7V1.3C0,0.6,0.6,0,1.3,0c0.3,0,0.5,0.1,0.8,0.3l9.4,7.1c0.4,0.3,0.6,0.9,0.4,1.4
			c-0.2,0.5-0.7,0.9-1.2,0.9H5.6l-3.3,3.9C2,13.8,1.7,14,1.3,14L1.3,14z"/>
	</g>
	<g class="st2">
		<path d="M1,1.3v11.5c0,0.3,0.3,0.4,0.5,0.2L5,8.8c0.1-0.1,0.1-0.1,0.2-0.1h5.5c0.3,0,0.4-0.3,0.2-0.5L1.5,1.1C1.3,0.9,1,1,1,1.3z"
			/>
	</g>
	<circle class="st4" cx="20" cy="8" r="2"/>
	<path class="st4" d="M27.6,19.8L27.6,19.8L27.6,19.8c0.2-0.2,0.4-0.3,0.7-0.5l0.1-0.1c0.2-0.1,0.3-0.2,0.5-0.4
		c0.1-0.1,0.3-0.2,0.3-0.2c0.2-0.2,0.5-0.4,0.7-0.7l0.2-0.2c0.2-0.2,0.3-0.3,0.4-0.5l0.1-0.1l0,0c0.6-0.8,0.5-2-0.3-2.7
		c-0.4-0.3-0.8-0.5-1.3-0.5c-0.6,0-1.1,0.2-1.5,0.7c-0.5,0.5-1,1-1.6,1.4l-1.7-3.8c1.1-1,1.8-2.5,1.8-4.2c0-2.6-1.6-4.8-4-5.7V2
		c0-1.1-0.9-2-2-2s-2,0.9-2,2v0.3c-2.4,0.8-4,3.1-4,5.7c0,1.7,0.7,3.2,1.8,4.3l-3.4,7.6L9,27.3V32l3.8-2.9l3.4-7.7h0.1l0.3,0.1
		c0.3,0.1,0.6,0.1,0.9,0.2c0.2,0,0.3,0.1,0.5,0.1h0.1c0.2,0,0.4,0.1,0.5,0.1c0.4,0,0.9,0.1,1.3,0.1s0.9,0,1.3-0.1
		c0.3,0,0.5-0.1,0.9-0.1c0.1,0,0.2,0,0.3-0.1c0.3-0.1,0.7-0.1,1-0.2h0.1c0.1,0,0.1,0,0.2-0.1l3.4,7.7L31,32v-4.7L27.6,19.8z M20,6
		c1.1,0,2,0.9,2,2s-0.9,2-2,2s-2-0.9-2-2S18.9,6,20,6z M20,18c-0.7,0-1.4-0.1-2.2-0.2l1.7-3.8c0.2,0,0.3,0,0.5,0s0.3,0,0.5,0
		l1.7,3.8C21.4,17.9,20.7,18,20,18z"/>
	<g class="st2">
		<circle cx="20" cy="8" r="1"/>
		<path d="M20,13c2.8,0,5-2.2,5-5c0-2.4-1.7-4.4-4-4.9V2c0-0.6-0.4-1-1-1s-1,0.4-1,1v1.1c-2.3,0.5-4,2.5-4,4.9
			C15,10.7,17.2,13,20,13z M20,5c1.7,0,3,1.3,3,3s-1.3,3-3,3s-3-1.3-3-3S18.3,5,20,5z"/>
		<path d="M26.3,19.4L26.3,19.4c0.5-0.3,0.9-0.6,1.4-0.9c0.2-0.1,0.4-0.3,0.5-0.4s0.2-0.1,0.3-0.2c0.2-0.2,0.5-0.4,0.7-0.6
			c0.1-0.1,0.1-0.1,0.2-0.2c0.2-0.2,0.3-0.3,0.5-0.5c0.3-0.4,0.3-1-0.1-1.3c-0.4-0.4-1-0.3-1.4,0.1c-0.8,0.9-1.7,1.6-2.7,2.2
			L24,13.9c-0.6,0.4-1.2,0.7-1.9,0.9l1.6,3.7C22.4,18.8,21.2,19,20,19s-2.4-0.2-3.5-0.6l1.6-3.7c-0.7-0.2-1.3-0.5-1.9-0.9l-2.5,5.5
			c0.6,0.4,1.3,0.6,2,0.9c0.3,0.1,0.6,0.2,0.9,0.3c0.1,0,0.2,0,0.2,0.1c0.3,0.1,0.5,0.1,0.8,0.2c0.2,0,0.3,0.1,0.5,0.1
			s0.4,0.1,0.6,0.1c0.4,0,0.8,0.1,1.2,0.1c0.4,0,0.8,0,1.2-0.1c0.2,0,0.5-0.1,0.7-0.1c0.1,0,0.3,0,0.4-0.1c0.3-0.1,0.6-0.1,0.9-0.2
			h0.1c0.3-0.1,0.7-0.2,1-0.3l0,0C25,20,25.7,19.7,26.3,19.4z"/>
		<path d="M27.1,21.2c-0.6,0.3-1.3,0.6-2,0.9l2.8,6.4l2,1.5v-2.5L27.1,21.2z"/>
		<path d="M10,27.5V30l2-1.5l2.8-6.4c-0.7-0.2-1.3-0.5-2-0.9L10,27.5z"/>
	</g>
</g>
<g id="Layer_2">
	<rect class="st5" width="32" height="32"/>
	<g>
		<path class="st3" d="M1.3,14C0.6,14,0,13.4,0,12.7V1.3C0,0.6,0.6,0,1.3,0c0.3,0,0.5,0.1,0.8,0.3l9.4,7.1c0.4,0.3,0.6,0.9,0.4,1.4
			c-0.2,0.5-0.7,0.9-1.2,0.9l-5.1,0l-3.3,3.9C2,13.8,1.7,14,1.3,14L1.3,14z"/>
	</g>
	<g>
		<path d="M1,1.3v11.5c0,0.3,0.3,0.4,0.5,0.2L5,8.8c0.1-0.1,0.1-0.1,0.2-0.1l5.5,0c0.3,0,0.4-0.3,0.2-0.5L1.5,1.1C1.3,0.9,1,1,1,1.3
			z"/>
	</g>
	<path class="st3" d="M7,32c-1.1,0-2-0.9-2-2V12c0-1.1,0.9-2,2-2c0.9,0,1.7,0.6,1.9,1.5l0.9-0.9c0.4-0.4,0.9-0.6,1.4-0.6
		s1,0.2,1.4,0.6s0.6,0.9,0.6,1.4c0,0.2,0,0.4-0.1,0.6C19,13.4,23.6,18,24.4,23.8c0.2-0.1,0.4-0.1,0.6-0.1c0.5,0,1,0.2,1.4,0.6
		s0.6,0.9,0.6,1.4s-0.2,1-0.6,1.4l-0.9,0.9c0.9,0.2,1.5,1,1.5,1.9c0,1.1-0.9,2-2,2H7z M19.4,28l-0.8-0.8c-0.8-0.8-0.8-2,0-2.8
		c0.4-0.4,0.9-0.6,1.4-0.6c0.1,0,0.2,0,0.3,0c-0.7-3.6-3.5-6.4-7.1-7.1c0,0.1,0,0.2,0,0.3c0,0.5-0.2,1-0.6,1.4S11.8,19,11.2,19
		s-1-0.2-1.4-0.6L9,17.6V28H19.4z"/>
	<path d="M25,29h-1.9c0,0,0,0,0.1,0l2.5-2.5c0.4-0.4,0.4-1,0-1.4s-1-0.4-1.4,0l-0.8,0.8c0-0.1,0-0.2,0-0.4c0-6.6-5.4-12-12-12
		c-0.1,0-0.2,0-0.4,0l0.8-0.8c0.4-0.4,0.4-1,0-1.4s-1-0.4-1.4,0L8,13.8c0,0,0,0,0,0.1V12c0-0.6-0.4-1-1-1s-1,0.4-1,1v18
		c0,0.6,0.4,1,1,1h18c0.6,0,1-0.4,1-1S25.6,29,25,29z M8,15.1C8,15.2,8,15.2,8,15.1l2.5,2.6c0.2,0.2,0.5,0.3,0.7,0.3
		s0.5-0.1,0.7-0.3c0.4-0.4,0.4-1,0-1.4l-0.8-0.8c0.1,0,0.2,0,0.3,0c5.5,0,10,4.5,10,10c0,0.1,0,0.2,0,0.3L20.7,25
		c-0.4-0.4-1-0.4-1.4,0s-0.4,1,0,1.4l2.5,2.5c0,0,0,0,0.1,0H8V15.1z"/>
</g>
</svg>
