<?xml version="1.0" encoding="utf-8"?>
<!-- Generator: Adobe Illustrator 26.1.0, SVG Export Plug-In . SVG Version: 6.00 Build 0)  -->
<svg version="1.1" id="Layer_1" xmlns="http://www.w3.org/2000/svg" xmlns:xlink="http://www.w3.org/1999/xlink" x="0px" y="0px"
	 width="32px" height="32px" viewBox="0 0 32 32" style="enable-background:new 0 0 32 32;" xml:space="preserve">
<style type="text/css">
	.st0{opacity:0.27;fill:none;}
	.st1{fill:#FFFFFF;}
</style>
<rect y="0" class="st0" width="32" height="32"/>
<g>
	<path class="st1" d="M1.3,14C0.6,14,0,13.4,0,12.7V1.3C0,0.6,0.6,0,1.3,0c0.3,0,0.5,0.1,0.8,0.3l9.4,7.1c0.4,0.3,0.6,0.9,0.4,1.4
		c-0.2,0.5-0.7,0.9-1.2,0.9l-5.1,0l-3.3,3.9C2,13.8,1.7,14,1.3,14L1.3,14z"/>
</g>
<g>
	<path d="M1,1.3v11.5c0,0.3,0.3,0.4,0.5,0.2L5,8.8c0.1-0.1,0.1-0.1,0.2-0.1l5.5,0c0.3,0,0.4-0.3,0.2-0.5L1.5,1.1C1.3,0.9,1,1,1,1.3z
		"/>
</g>
<circle class="st1" cx="20" cy="8" r="2"/>
<path class="st1" d="M27.6,19.8L27.6,19.8L27.6,19.8c0.2-0.2,0.4-0.3,0.7-0.5l0.1-0.1c0.2-0.1,0.3-0.2,0.5-0.4
	c0.1-0.1,0.3-0.2,0.3-0.2c0.2-0.2,0.5-0.4,0.7-0.7l0.2-0.2c0.2-0.2,0.3-0.3,0.4-0.5l0.1-0.1l0,0c0.6-0.8,0.5-2-0.3-2.7
	c-0.4-0.3-0.8-0.5-1.3-0.5c-0.6,0-1.1,0.2-1.5,0.7c-0.5,0.5-1,1-1.6,1.4l-1.7-3.8C25.3,11.2,26,9.7,26,8c0-2.6-1.6-4.8-4-5.7V2
	c0-1.1-0.9-2-2-2s-2,0.9-2,2v0.3c-2.4,0.8-4,3.1-4,5.7c0,1.7,0.7,3.2,1.8,4.3l-3.4,7.6L9,27.3V32l3.8-2.9l3.4-7.7c0,0,0.1,0,0.1,0
	l0.3,0.1c0.3,0.1,0.6,0.1,0.9,0.2c0.2,0,0.3,0.1,0.5,0.1l0.1,0c0.2,0,0.4,0.1,0.5,0.1c0.4,0,0.9,0.1,1.3,0.1c0.4,0,0.9,0,1.3-0.1
	c0.3,0,0.5-0.1,0.9-0.1c0.1,0,0.2,0,0.3-0.1c0.3-0.1,0.7-0.1,1-0.2l0.1,0c0.1,0,0.1,0,0.2-0.1l3.4,7.7L31,32v-4.7L27.6,19.8z M20,6
	c1.1,0,2,0.9,2,2c0,1.1-0.9,2-2,2s-2-0.9-2-2C18,6.9,18.9,6,20,6z M20,18c-0.7,0-1.4-0.1-2.2-0.2l1.7-3.8c0.2,0,0.3,0,0.5,0
	c0.2,0,0.3,0,0.5,0l1.7,3.8C21.4,17.9,20.7,18,20,18z"/>
<g>
	<circle cx="20" cy="8" r="1"/>
	<path d="M20,13c2.8,0,5-2.2,5-5c0-2.4-1.7-4.4-4-4.9V2c0-0.6-0.4-1-1-1c-0.6,0-1,0.4-1,1v1.1c-2.3,0.5-4,2.5-4,4.9
		C15,10.7,17.2,13,20,13z M20,5c1.7,0,3,1.3,3,3c0,1.7-1.3,3-3,3c-1.7,0-3-1.3-3-3C17,6.3,18.3,5,20,5z"/>
	<path d="M26.3,19.4L26.3,19.4c0.5-0.3,0.9-0.6,1.4-0.9c0.2-0.1,0.4-0.3,0.5-0.4c0.1-0.1,0.2-0.1,0.3-0.2c0.2-0.2,0.5-0.4,0.7-0.6
		c0.1-0.1,0.1-0.1,0.2-0.2c0.2-0.2,0.3-0.3,0.5-0.5c0.3-0.4,0.3-1-0.1-1.3c-0.4-0.4-1-0.3-1.4,0.1c-0.8,0.9-1.7,1.6-2.7,2.2
		l-1.7-3.7c-0.6,0.4-1.2,0.7-1.9,0.9l1.6,3.7C22.4,18.8,21.2,19,20,19s-2.4-0.2-3.5-0.6l1.6-3.7c-0.7-0.2-1.3-0.5-1.9-0.9l-2.5,5.5
		c0.6,0.4,1.3,0.6,2,0.9c0.3,0.1,0.6,0.2,0.9,0.3c0.1,0,0.2,0,0.2,0.1c0.3,0.1,0.5,0.1,0.8,0.2c0.2,0,0.3,0.1,0.5,0.1
		c0.2,0,0.4,0.1,0.6,0.1c0.4,0,0.8,0.1,1.2,0.1c0.4,0,0.8,0,1.2-0.1c0.2,0,0.5-0.1,0.7-0.1c0.1,0,0.3,0,0.4-0.1
		c0.3-0.1,0.6-0.1,0.9-0.2c0,0,0.1,0,0.1,0c0.3-0.1,0.7-0.2,1-0.3v0C25,20,25.7,19.7,26.3,19.4z"/>
	<path d="M27.1,21.2c-0.6,0.3-1.3,0.6-2,0.9l2.8,6.4l2,1.5v-2.5L27.1,21.2z"/>
	<path d="M10,27.5V30l2-1.5l2.8-6.4c-0.7-0.2-1.3-0.5-2-0.9L10,27.5z"/>
</g>
</svg>
