<?xml version="1.0" encoding="utf-8"?>
<!-- Generator: Adobe Illustrator 25.4.1, SVG Export Plug-In . SVG Version: 6.00 Build 0)  -->
<svg version="1.1" id="Layer_1" xmlns="http://www.w3.org/2000/svg" xmlns:xlink="http://www.w3.org/1999/xlink" x="0px" y="0px"
	 width="32px" height="32px" viewBox="0 0 32 32" style="enable-background:new 0 0 32 32;" xml:space="preserve">
<style type="text/css">
	.st0{fill:none;}
	.st1{fill:#FFFFFF;}
</style>
<rect x="0" y="0" class="st0" width="32" height="32"/>
<path class="st1" d="M30.1,11.9c-1.7-1.7-4.4-3-7.7-3.7c0.1-0.1,0.2-0.3,0.3-0.5c0.2-0.5,0.2-1,0-1.5C21.2,2.3,18.8,0,16,0
	C12.3,0,9.2,4,8,10.2L7.8,9.9C7.4,9.4,6.9,9.2,6.2,9.2C5.8,9.2,5.3,9.3,5,9.6c-0.7,0.6-0.9,1.6-0.6,2.4c-0.4-0.3-0.8-0.5-1.3-0.5
	c-0.6,0-1.1,0.2-1.5,0.7C0.5,13.3,0,14.6,0,16c0,3.8,4.3,6.9,10.7,8c0,0-0.1,0-0.1,0c-1,0.5-1.4,1.7-1,2.7c1.6,3.4,3.9,5.3,6.4,5.3
	h0c1.1,0,2.2-0.4,3.2-1.1c0.4-0.3,0.7-0.8,0.8-1.3c0.1-0.5,0-1.1-0.3-1.5c-0.4-0.5-1-0.8-1.6-0.8c-0.4,0-0.8,0.1-1.2,0.4
	C16.6,27.9,16.3,28,16,28c-0.7,0-1.8-0.8-2.8-2.9c-0.1-0.3-0.4-0.5-0.6-0.7c1.1,0.1,2.2,0.2,3.4,0.2h2.5c-0.6,0.7-0.6,1.8,0,2.5
	c0.4,0.5,0.9,0.7,1.6,0.7c0.5,0,0.9-0.2,1.3-0.4l4-3.3c0.5-0.4,0.7-0.9,0.7-1.6c0-0.6-0.3-1.2-0.7-1.6l-4-3.3
	c-0.4-0.3-0.8-0.4-1.3-0.4c-0.6,0-1.2,0.3-1.6,0.7c-0.6,0.7-0.6,1.8,0,2.5H16c-7.2,0-12-2.7-12-4.5c0-0.4,0.2-0.8,0.6-1.2
	c0.5-0.6,0.6-1.4,0.4-2.1l3,3.7c0.4,0.5,0.9,0.7,1.6,0.7s1.2-0.3,1.6-0.7l3.3-4c0.3-0.4,0.5-0.9,0.4-1.4c0.3,0.3,0.8,0.5,1.3,0.5
	c4.9,0,9.4,1.3,11.3,3.2c0.5,0.5,0.7,0.9,0.7,1.3c0,0.7-0.7,1.5-1.9,2.2c-0.9,0.6-1.2,1.8-0.7,2.8c0.4,0.6,1,1,1.7,1
	c0.4,0,0.7-0.1,1-0.3c3.1-1.9,3.8-4.1,3.8-5.6C32,14.5,31.4,13.1,30.1,11.9z M14,9.5C14,9.5,14,9.6,14,9.5c-0.3-0.2-0.8-0.4-1.2-0.4
	c-0.1,0-0.2,0-0.4,0C13.4,5.9,14.9,4,16,4c0.8,0,2.1,1.1,3.1,3.6c0,0,0,0,0,0c-1-0.1-2-0.1-3.1-0.1C14.9,7.5,14,8.4,14,9.5z"/>
<path d="M20.7,18.4c-0.4-0.3-1.1-0.3-1.4,0.1C18.9,19,19,19.7,19.4,20l1.8,1.5H16c0,0,0,0,0,0c-7.6,0-13-2.9-13-5.5
	c0-0.6,0.3-1.2,0.8-1.9c0.4-0.4,0.3-1-0.1-1.4c-0.4-0.4-1-0.3-1.4,0.1C1.5,13.8,1,14.9,1,16c0,4.2,6.6,7.5,15,7.5c0,0,0,0,0,0h5.2
	L19.4,25c-0.4,0.4-0.5,1-0.1,1.4c0.2,0.2,0.5,0.4,0.8,0.4c0.2,0,0.4-0.1,0.6-0.2l4-3.3c0.2-0.2,0.4-0.5,0.4-0.8
	c0-0.3-0.1-0.6-0.4-0.8L20.7,18.4z"/>
<path d="M29.4,12.6c-2.5-2.5-7.6-4.1-13.4-4.1c-0.6,0-1,0.4-1,1c0,0.6,0.4,1,1,1c5.2,0,9.9,1.4,12,3.5c0.7,0.7,1,1.3,1,2
	c0,1-0.8,2.1-2.4,3.1c-0.5,0.3-0.6,0.9-0.3,1.4c0.2,0.3,0.5,0.5,0.9,0.5c0.2,0,0.4,0,0.5-0.1c2.2-1.3,3.3-3,3.3-4.8
	C31,14.8,30.5,13.6,29.4,12.6z"/>
<path d="M17.5,28.5C17,28.8,16.5,29,16,29c0,0,0,0,0,0c-1.3,0-2.6-1.3-3.7-3.5C12.1,25,11.5,24.8,11,25c-0.5,0.2-0.7,0.8-0.5,1.3
	c1.4,3,3.4,4.7,5.5,4.7c0,0,0,0,0,0c0.9,0,1.8-0.3,2.6-0.9c0.5-0.3,0.6-1,0.2-1.4C18.5,28.3,17.9,28.1,17.5,28.5z"/>
<path d="M8.7,15.8c0.2,0.2,0.5,0.4,0.8,0.4c0.3,0,0.6-0.1,0.8-0.4l3.3-4c0.3-0.4,0.3-1.1-0.1-1.4C13,10,12.3,10.1,12,10.5L10.8,12
	c0.7-5.1,2.9-9,5.2-9c0,0,0,0,0,0c1.4,0,2.9,1.6,4,4.3c0.2,0.5,0.8,0.8,1.3,0.6c0.5-0.2,0.8-0.8,0.6-1.3C20.5,3,18.3,1,16,1
	c0,0,0,0,0,0c-3.6,0-6.5,4.8-7.3,11.6L7,10.5c-0.4-0.4-1-0.5-1.4-0.1c-0.4,0.4-0.5,1-0.1,1.4L8.7,15.8z"/>
</svg>
