<svg id="Layer_1" data-name="Layer 1" xmlns="http://www.w3.org/2000/svg" viewBox="0 0 48 48" height="48" width="48">
<defs><style>.cls-1{fill:#fff;}.cls-2{fill:#231f20;}.cls-3{fill:none;}</style></defs>
<path class="cls-1" d="M24,46a2,2,0,0,1-1.41-.59L16.87,39.7a2,2,0,0,1,0-2.83,2,2,0,0,1,2.83,0l2.3,2.3V26H8.83l2.3,2.3a2,2,0,0,1,0,2.83,2,2,0,0,1-2.83,0L2.59,25.41a2,2,0,0,1,0-2.82L8.3,16.87a2,2,0,0,1,2.83,0,2,2,0,0,1,0,2.83L8.83,22H22V8.83l-2.3,2.3a2,2,0,0,1-2.83,0,2,2,0,0,1,0-2.83l5.72-5.71a2,2,0,0,1,2.82,0L31.13,8.3a2,2,0,0,1,0,2.83,2,2,0,0,1-2.83,0L26,8.83V22H39.17l-2.3-2.3a2,2,0,0,1,0-2.83,2,2,0,0,1,2.83,0l5.71,5.72a2,2,0,0,1,0,2.82L39.7,31.13a2,2,0,0,1-2.83,0,2,2,0,0,1,0-2.83l2.3-2.3H26V39.17l2.3-2.3a2,2,0,0,1,2.83,0,2,2,0,0,1,0,2.83l-5.72,5.71A2,2,0,0,1,24,46Z"/>
<path class="cls-2" d="M44.71,23.29,39,17.58A1,1,0,1,0,37.58,19l4,4H25V6.41l4,4a1,1,0,0,0,1.41,0,1,1,0,0,0,0-1.41L24.71,3.29a1,1,0,0,0-1.42,0L17.58,9A1,1,0,1,0,19,10.42l4-4V23H6.41l4-4A1,1,0,1,0,9,17.58L3.29,23.29a1,1,0,0,0,0,1.42L9,30.42a1,1,0,0,0,1.41,0,1,1,0,0,0,0-1.41l-4-4H23V41.59l-4-4A1,1,0,1,0,17.58,39l5.71,5.72a1,1,0,0,0,1.42,0L30.42,39A1,1,0,1,0,29,37.58l-4,4V25H41.59l-4,4a1,1,0,0,0,0,1.41,1,1,0,0,0,1.41,0l5.72-5.71a1,1,0,0,0,0-1.42Z"/>
<rect class="cls-3" width="48" height="48"/></svg>