<svg id="Layer_1" data-name="Layer 1" xmlns="http://www.w3.org/2000/svg" viewBox="0 0 48 48" height="48" width="48">
<defs><style>.cls-1{fill:#fff;}.cls-2{fill:#231f20;}.cls-3{fill:none;}</style></defs>
<path class="cls-1" d="M22.87,42.29a2,2,0,0,1-1.41-.58,2,2,0,0,1,0-2.83l1.93-1.94C11.15,36.78,2,31.73,2,25.07c0-6.3,8.53-11.29,20-11.82V7.71a2,2,0,0,1,4,0v5.54c11.47.53,20,5.52,20,11.82,0,3-2,5.88-5.57,8a2,2,0,0,1-1,.28h0a2,2,0,0,1-1.72-1,2,2,0,0,1,.69-2.74c2.34-1.39,3.62-3,3.62-4.58,0-3.87-7.23-7.35-16-7.81v7.81a2,2,0,0,1-4,0V17.26c-8.77.46-16,3.94-16,7.81,0,3.65,7.1,7.71,17.36,7.87L21.46,31a2,2,0,0,1,0-2.83,2,2,0,0,1,2.83,0l5.33,5.34a2,2,0,0,1,0,2.82l-5.33,5.34A2,2,0,0,1,22.87,42.29Z"/>
<path class="cls-2" d="M25,14.22V7.71a1,1,0,0,0-2,0v6.51c-11.29.26-20,4.93-20,10.85C3,31.17,12.22,36,24,36c.62,0,1.24,0,1.86-.06l-3.7,3.7a1,1,0,0,0,.71,1.7,1,1,0,0,0,.71-.29l5.33-5.33a1,1,0,0,0,.3-.71,1,1,0,0,0-.3-.71l-5.33-5.33a1,1,0,0,0-1.42,0,1,1,0,0,0,0,1.41l3.56,3.56c-.57,0-1.15.06-1.72.06C13.7,34,5,29.88,5,25.07s8.15-8.6,18-8.85v8.85a1,1,0,0,0,2,0V16.22c9.85.25,18,4.19,18,8.85,0,1.93-1.46,3.86-4.11,5.44a1,1,0,0,0,1,1.72c3.28-2,5.08-4.5,5.08-7.16C45,19.15,36.29,14.48,25,14.22Z"/>
<rect class="cls-3" width="48" height="48"/></svg>
