<svg id="Layer_1" data-name="Layer 1" xmlns="http://www.w3.org/2000/svg" viewBox="0 0 48 48" height="48" width="48">
<defs><style>.cls-1{fill:#fff;}.cls-2{fill:#231f20;}.cls-3{fill:none;}</style></defs>
<path class="cls-1" d="M24,46a2,2,0,0,1-1.25-.44L4.94,31.24a2,2,0,0,1-.73-1.63,1,1,0,0,1,0-.2,2,2,0,0,1,2-2H14L18.5,13.73H15l-.07,0A2,2,0,0,1,13.53,13,2,2,0,0,1,13,11.58a2,2,0,0,1,.69-1.36l8.92-7.73a2,2,0,0,1,2.62,0l9,7.82,0,.07a.83.83,0,0,1,.16.21,1.18,1.18,0,0,1,.2.32,1.13,1.13,0,0,1,.1.32,1.81,1.81,0,0,1,.06.27l0,.06v.17a1.18,1.18,0,0,1-.05.35,1.22,1.22,0,0,1-.08.34,1.75,1.75,0,0,1-.19.37,1.73,1.73,0,0,1-.16.25l-.12.13-.06,0a1.57,1.57,0,0,1-.32.24l0,0-.15.08a2,2,0,0,1-.82.18h-3.2l4.37,13.68h7.76a2,2,0,0,1,1.87,2.68,1.93,1.93,0,0,1-.7,1.15L25.22,45.56A2.05,2.05,0,0,1,24,46Zm0-4.57,12.44-10H32.59a2,2,0,0,1-.71-.14l-.06,0-.14-.08a2.11,2.11,0,0,1-.4-.26,1.62,1.62,0,0,1-.18-.19,1.81,1.81,0,0,1-.26-.38.83.83,0,0,1-.07-.13l0-.06L25,12.21v-.16L25,12l0-.24a1.09,1.09,0,0,1,0-.19,1.45,1.45,0,0,1,.06-.29,2.25,2.25,0,0,1,.12-.37,1.58,1.58,0,0,1,.19-.3,1.83,1.83,0,0,1,.26-.32,1.74,1.74,0,0,1,.27-.19l.26-.15.05,0,.15-.05a1,1,0,0,1,.32-.06,1.23,1.23,0,0,1,.31,0h.57L24,6.65,20.4,9.73h.86a1.34,1.34,0,0,1,.33,0,1.57,1.57,0,0,1,.3.06l.14.05.07,0,.23.13a2.25,2.25,0,0,1,.3.22,1.49,1.49,0,0,1,.23.29,1.45,1.45,0,0,1,.21.33,1.51,1.51,0,0,1,.11.32,1.84,1.84,0,0,1,.06.29l0,.07v.16a1.21,1.21,0,0,1-.05.36h0a.65.65,0,0,1-.05.27L17.27,30.14l-.11.2a1.89,1.89,0,0,1-.26.39l-.18.18a2.9,2.9,0,0,1-.41.27l-.21.1a2.06,2.06,0,0,1-.69.13H11.52Z"/>
<path class="cls-2" d="M42.81,29.41a1,1,0,0,0-1-1H33.32l-5-15.68h4.57a.87.87,0,0,0,.4-.09l.07,0a1.06,1.06,0,0,0,.26-.2l0,0s0-.08.07-.12a1.18,1.18,0,0,0,.11-.19,1.18,1.18,0,0,0,0-.2s0-.09,0-.14v0a1.18,1.18,0,0,0,0-.2c0-.06,0-.12-.05-.18a.6.6,0,0,0-.09-.13.86.86,0,0,0-.14-.18l0,0L24.62,3.24a1,1,0,0,0-1.31,0L14.38,11a1,1,0,0,0-.1,1.41,1,1,0,0,0,.77.34h4.83l-5.2,15.68H6.19a1,1,0,0,0-1,1c0,.05,0,.09,0,.13a1,1,0,0,0,.35.92L23.33,44.78A1,1,0,0,0,24,45a1,1,0,0,0,.63-.22L42.36,30.46a1,1,0,0,0,.36-.65A1.06,1.06,0,0,0,42.81,29.41ZM24,42.72,8.69,30.41h6.72a1,1,0,0,0,.35-.07l.1-.05a.9.9,0,0,0,.2-.14l.09-.08a1.37,1.37,0,0,0,.13-.2.54.54,0,0,0,0-.11l0,0L22.21,12a.77.77,0,0,0,0-.15,1.1,1.1,0,0,0,0-.16v0a1.6,1.6,0,0,0-.05-.21.85.85,0,0,0,0-.17.83.83,0,0,0-.11-.15,1,1,0,0,0-.12-.16.67.67,0,0,0-.14-.09.72.72,0,0,0-.19-.11l0,0a.77.77,0,0,0-.15,0,1,1,0,0,0-.17,0H17.72L24,5.32l6.24,5.41H27a.66.66,0,0,0-.15,0,.88.88,0,0,0-.16,0l0,0a.69.69,0,0,0-.19.1.71.71,0,0,0-.14.1.88.88,0,0,0-.12.15.54.54,0,0,0-.1.16.48.48,0,0,0-.05.17,1.46,1.46,0,0,0-.05.2v.05a.8.8,0,0,0,0,.15A.76.76,0,0,0,26,12l5.65,17.68s0,0,0,.05l.06.11a.91.91,0,0,0,.13.19.76.76,0,0,0,.09.09.63.63,0,0,0,.2.13l.1.06a1,1,0,0,0,.35.07h6.65Z"/>
<rect class="cls-3" width="48" height="48"/></svg>