<svg xmlns="http://www.w3.org/2000/svg" viewBox="0 0 29 25">
<path d="M24.1,4.4c-0.7,0.3-1.7,1-2.7,1.7c-0.2-0.7-0.5-1.1-1-1.4c0.2-0.2,0.5-0.3,0.7-0.6c1-1,1.2-2.9,0.5-3.5
	C20.9,0,20.8,1.9,19.8,3c-0.5,0.5-1.1,0.8-1.5,1c-0.8-0.2-2.4-0.4-3.9-0.5c-1.5,0-3,0.3-3.9,0.5c-0.4-0.2-1-0.5-1.5-1
	c-1-1-1.1-3-1.8-2.3S6.9,3.2,7.9,4.2c0.2,0.2,0.4,0.4,0.7,0.6c-0.5,0.3-0.8,0.8-1,1.4c-1-0.8-1.9-1.5-2.7-1.7C3,3.7,0.4,4.7,0.4,4.7
	s2.1,4.1,4,4.6c0.8,0.2,2.1,0.1,3.2,0l1.9,8.4c0,0.1,0,0.2,0,0.3L9,20.8c0,0.1,0,0.3,0,0.4c0.4,1.4,2.1,2.4,2.8,2.6
	c0,0,1.4,0.7,2.8,0.7c1.4,0,2.8-0.7,2.8-0.7c0.6-0.2,2.4-1.2,2.8-2.6c0-0.1,0-0.3,0-0.4L19.4,18c0-0.1,0-0.2,0-0.3l1.9-8.4
	c1.2,0.1,2.4,0.2,3.2,0c1.9-0.5,4-4.6,4-4.6S26,3.7,24.1,4.4z M12.9,20.8c-0.3,0.4-0.9,0.5-1.5,0.2c-0.6-0.3-0.8-1-0.6-1.4
	c0.3-0.4,0.5,0.3,1,0.6C12.4,20.5,13.1,20.4,12.9,20.8z M17.6,20.9c-0.6,0.3-1.2,0.3-1.5-0.2c-0.3-0.4,0.5-0.3,1-0.6
	c0.6-0.3,0.8-1,1-0.6C18.5,20,18.2,20.6,17.6,20.9z"/>
</svg>
