<svg xmlns="http://www.w3.org/2000/svg" viewBox="0 0 24 25">
<path d="M20.7,1.5H19c-0.2-0.6-0.8-1-1.5-1c-0.7,0-1.3,0.4-1.5,1H8c-0.2-0.6-0.8-1-1.5-1S5.2,0.9,5,1.5H3.3c-1.6,0-2.8,1.3-2.8,2.8
	v17.3c0,1.6,1.3,2.8,2.8,2.8h17.4c1.6,0,2.8-1.3,2.8-2.8V4.4C23.5,2.8,22.2,1.5,20.7,1.5z M5.6,2.5C5.6,2,6,1.6,6.5,1.6
	C7,1.6,7.4,2,7.4,2.5V4c0,0.5-0.4,0.9-0.9,0.9C6,4.9,5.6,4.5,5.6,4V2.5z M7.9,18c0,0.3-0.3,0.6-0.6,0.6H5.5c-0.3,0-0.6-0.3-0.6-0.6
	v-1.7c0-0.3,0.3-0.6,0.6-0.6h1.7c0.3,0,0.6,0.3,0.6,0.6V18z M7.9,11.7c0,0.3-0.3,0.6-0.6,0.6H5.5c-0.3,0-0.6-0.3-0.6-0.6V9.9
	c0-0.3,0.3-0.6,0.6-0.6h1.7c0.3,0,0.6,0.3,0.6,0.6V11.7z M13.5,18c0,0.3-0.3,0.6-0.6,0.6h-1.7c-0.3,0-0.6-0.3-0.6-0.6v-1.7
	c0-0.3,0.3-0.6,0.6-0.6h1.7c0.3,0,0.6,0.3,0.6,0.6V18z M13.5,11.7c0,0.3-0.3,0.6-0.6,0.6h-1.7c-0.3,0-0.6-0.3-0.6-0.6V9.9
	c0-0.3,0.3-0.6,0.6-0.6h1.7c0.3,0,0.6,0.3,0.6,0.6V11.7z M16.6,2.5c0-0.5,0.4-0.9,0.9-0.9c0.5,0,0.9,0.4,0.9,0.9V4
	c0,0.5-0.4,0.9-0.9,0.9c-0.5,0-0.9-0.4-0.9-0.9V2.5z M19.1,18c0,0.3-0.3,0.6-0.6,0.6h-1.7c-0.3,0-0.6-0.3-0.6-0.6v-1.7
	c0-0.3,0.3-0.6,0.6-0.6h1.7c0.3,0,0.6,0.3,0.6,0.6V18z M19.1,11.7c0,0.3-0.3,0.6-0.6,0.6h-1.7c-0.3,0-0.6-0.3-0.6-0.6V9.9
	c0-0.3,0.3-0.6,0.6-0.6h1.7c0.3,0,0.6,0.3,0.6,0.6V11.7z"/>
</svg>
