<svg xmlns="http://www.w3.org/2000/svg" viewBox="0 0 33 25">
<path d="M29.3,17.7h-3.1l6.2-4L26,9.6v2.5h-6.8v3.2H26v2.4h-9.9c0-0.4,0-1,0-1.1c-0.2-3.7-2.3-6.8-5-7.5
	c1.8-0.6,3.1-2.2,3.1-4.2c0-2.4-2-4.4-4.5-4.4c-2.5,0-4.5,2-4.5,4.4c0,2,1.4,3.7,3.2,4.2C5.6,9.9,3.6,13,3.5,16.8c0,0.1,0,0.6,0,1
	c-1.6,0.1-2.9,1.5-2.9,3.1v0.6c0,1.7,1.4,3.1,3.1,3.1h25.5c1.7,0,3.1-1.4,3.1-3.1v-0.6C32.4,19.1,31,17.7,29.3,17.7z M5.6,22.9
	c-1,0-1.8-0.8-1.8-1.8c0-1,0.8-1.8,1.8-1.8s1.8,0.8,1.8,1.8C7.3,22.1,6.6,22.9,5.6,22.9z M16.4,22.9c-1,0-1.8-0.8-1.8-1.8
	c0-1,0.8-1.8,1.8-1.8c1,0,1.8,0.8,1.8,1.8C18.1,22.1,17.4,22.9,16.4,22.9z M27.2,22.9c-1,0-1.8-0.8-1.8-1.8c0-1,0.8-1.8,1.8-1.8
	c1,0,1.8,0.8,1.8,1.8C28.9,22.1,28.2,22.9,27.2,22.9z"/>
</svg>
