<svg xmlns="http://www.w3.org/2000/svg" viewBox="0 0 26 25">
<path d="M25,11.1c0-0.3-0.3-0.6-0.6-0.6l-2.2,0c0,0-0.1,0-0.1-0.1l-0.3-0.9c-0.1-0.3-0.2-0.6-0.4-1l-0.6-1.2
	c0,0,0-0.1,0-0.1l1.5-1.5c0.1-0.1,0.2-0.2,0.2-0.4c0-0.2-0.1-0.3-0.2-0.4l-1.9-1.9c-0.2-0.2-0.6-0.2-0.8,0l-0.8,0.8l-0.7,0.7
	c0,0-0.1,0-0.1,0l-0.9-0.4C17,4,16.8,3.9,16.6,3.9c-0.2-0.1-0.4-0.2-0.6-0.2L15,3.3c0,0-0.1,0-0.1-0.1l0-2.1c0-0.3-0.3-0.6-0.6-0.6
	l-2.7,0c-0.3,0-0.6,0.3-0.6,0.6l0,2.1c0,0,0,0.1-0.1,0.1l-0.9,0.3C9.8,3.7,9.6,3.8,9.3,3.9C9.1,4,8.9,4.1,8.7,4.2L7.9,4.6
	c0,0-0.1,0-0.1,0L7.1,3.9L6.3,3.1C6.1,3,6,2.9,5.9,2.9h0C5.7,2.9,5.6,3,5.5,3.1L3.6,5C3.5,5.1,3.4,5.2,3.4,5.4
	c0,0.2,0.1,0.3,0.2,0.4l0.8,0.8l0.7,0.7c0,0,0,0.1,0,0.1L4.7,8.2C4.6,8.4,4.5,8.6,4.4,8.8C4.3,9.1,4.2,9.4,4.1,9.6l-0.3,0.9
	c0,0,0,0.1-0.1,0.1H1.6c-0.3,0-0.6,0.3-0.6,0.6l0,2.7c0,0.3,0.3,0.6,0.6,0.6l2.1,0c0,0,0.1,0,0.1,0.1l0.3,0.9
	c0.1,0.2,0.2,0.4,0.2,0.6c0.1,0.2,0.2,0.4,0.3,0.6l0.4,0.9c0,0,0,0.1,0,0.1l-0.7,0.7l-0.8,0.8c-0.2,0.2-0.2,0.6,0,0.8l1.9,1.9
	c0.2,0.2,0.6,0.2,0.8,0l1.5-1.5c0,0,0.1,0,0.1,0l0.8,0.5L9.1,21c0.3,0.1,0.6,0.2,0.9,0.3l0.9,0.3c0,0,0.1,0,0.1,0.1l0,2.2
	c0,0.3,0.3,0.6,0.6,0.6l2.7,0c0.2,0,0.3-0.1,0.4-0.2c0.1-0.1,0.2-0.2,0.2-0.4v-2.2c0,0,0-0.1,0.1-0.1l0.9-0.3
	c0.2-0.1,0.4-0.2,0.6-0.2c0.2-0.1,0.4-0.2,0.6-0.3l0.9-0.5c0,0,0.1,0,0.1,0l1.5,1.5c0.2,0.2,0.6,0.2,0.8,0l1.9-1.9
	c0.1-0.1,0.2-0.2,0.2-0.4c0-0.2-0.1-0.3-0.2-0.4l-1.5-1.5c0,0,0-0.1,0-0.1l0.5-0.9c0.1-0.2,0.2-0.4,0.3-0.6c0.1-0.2,0.2-0.4,0.2-0.7
	l0.3-0.9c0,0,0-0.1,0.1-0.1h2.2c0.3,0,0.6-0.3,0.6-0.6L25,11.1z M13,16.4c-2.2,0-3.9-1.8-3.9-3.9c0-2.2,1.8-3.9,3.9-3.9
	c2.2,0,3.9,1.8,3.9,3.9C16.9,14.7,15.2,16.4,13,16.4z"/>
</svg>
