<svg xmlns="http://www.w3.org/2000/svg" viewBox="0 0 18 25">
	<path d="M16.8,7l-3.4-3.3V2.3h0.2c0.3,0,0.6-0.3,0.6-0.6V1.1c0-0.3-0.3-0.6-0.6-0.6H4.5c-0.3,0-0.6,0.3-0.6,0.6v0.6
		c0,0.3,0.3,0.6,0.6,0.6h0.2v1.5L1.2,7C1,7.3,0.8,7.6,0.8,7.9v15.2c0,0.8,0.6,1.4,1.4,1.4h13.6c0.8,0,1.4-0.6,1.4-1.4V7.9
		C17.2,7.6,17,7.3,16.8,7z M15.4,19.4l-1.5,2.7h-3.1l-1.3-2.2H6.9l-1.5-2.7l1.5-2.7h2.6l1.3-2.2h3.1l1.5,2.7l-1.3,2.2L15.4,19.4z"/>
	<path d="M7.5,15.5h1h1l0.5,0.8l0.5,0.8L9.9,18l-0.5,0.8h-1h-1L7,18l-0.5-0.8L7,16.4L7.5,15.5z M10.8,14.2L10.3,15
		l0.5,0.8l0.5,0.8h1h1l0.5-0.8l0.5-0.8l-0.5-0.8l-0.5-0.8h-1h-1L10.8,14.2z M10.8,18.5l-0.5,0.8l0.5,0.8l0.5,0.8h1h1l0.5-0.8
		l0.5-0.8l-0.5-0.8l-0.5-0.8h-1h-1L10.8,18.5z"/>
</svg>
