<svg xmlns="http://www.w3.org/2000/svg" viewBox="0 0 26 26" style="enable-background:new 0 0 26 26;">
<path class="st0" d="M13,1C6.4,1,1,6.4,1,13s5.4,12,12,12s12-5.4,12-12S19.6,1,13,1z M11.72,6.07c0.34-0.34,0.69-0.52,1.21-0.52l0,0
	l0,0l0,0c0.43,0,0.86,0.17,1.21,0.52c0.34,0.34,0.52,0.69,0.52,1.21c0,0.43-0.17,0.86-0.52,1.12c-0.34,0.34-0.69,0.43-1.12,0.43
	c-0.52,0-0.86-0.17-1.21-0.43c-0.34-0.34-0.43-0.69-0.43-1.12C11.29,6.84,11.47,6.41,11.72,6.07z M16.2,20.45H9.66v-1.64h1.72v-6.63
	H9.66v-1.64h4.91v8.26h1.64V20.45z"/>
</svg>
