<svg xmlns="http://www.w3.org/2000/svg" viewBox="0 0 18 25">
<path d="M16.6,21.1h-1l-0.9-1.7V6.9C14.8,6.4,14.4,6,14,6h-2.8V2.4c0-0.3-0.3-0.6-0.6-0.6H8.8V1.1
	c0-0.3-0.3-0.6-0.6-0.6H3.8c-0.3,0-0.6,0.3-0.6,0.6v0.7H1.7c-0.4,0-0.8,0.4-0.8,0.8V13c0,0.2,0.1,0.3,0.1,0.4l3.2,4.1
	c0.1,0.1,0.3,0.2,0.5,0.2h0.4v2.2c0,0.3,0.3,0.6,0.6,0.6h0.7c0.3,0,0.6-0.3,0.6-0.6v-2.2h0.4c0.2,0,0.4-0.1,0.5-0.3l3.2-4.1l0,0
	c0.1-0.1,0.1-0.2,0.1-0.4V7.7h2v11.7l-0.9,1.7H8.9c-0.2,0-0.4,0.1-0.5,0.2l-1,1c0,0.1-0.1,0.1-0.2,0.1H5c-0.1,0-0.1,0-0.2-0.1
	l-1.1-1.1C3.6,21.1,3.4,21,3.2,21c0,0,0,0,0,0l-1.8,0c-0.4,0-0.7,0.3-0.7,0.7l0,2.8h16.6v-2.7C17.3,21.5,17,21.1,16.6,21.1z"/>
</svg>
