<svg xmlns="http://www.w3.org/2000/svg" viewBox="0 0 31 25">
<path d="M28.5,19.4H17.2c0,0,0,0,0,0l-1.4-1.3c-0.1-0.1-0.3-0.2-0.5-0.3l-5-1.2c-0.2,0-0.3-0.2-0.3-0.3L8.4,8.9
	l12.4,1.7c0.1,0,0.3,0,0.4-0.1c0.2,0.3,0.4,0.6,0.6,0.9c0.6,0.5,1.3,0.8,2.1,0.8c0.5,0,1-0.2,1.5-0.4l1.5,0.9
	c0.2,0.1,0.3,0.1,0.5,0.1c0.1,0,0.2,0,0.2,0c0.3-0.1,0.5-0.2,0.6-0.5c0.1-0.2,0.2-0.5,0.1-0.8c-0.1-0.3-0.2-0.5-0.4-0.6l-1.2-0.8
	l1.4,0.3c0.1,0,0.1,0,0.2,0c0.2,0,0.4-0.1,0.6-0.2c0.2-0.2,0.4-0.4,0.4-0.6c0-0.3,0-0.5-0.2-0.8c-0.2-0.2-0.4-0.4-0.6-0.4l-1.8-0.3
	c-0.2-0.4-0.4-0.8-0.7-1.2c-0.6-0.6-1.3-0.8-2.1-0.8c-0.6,0-1.1,0.2-1.6,0.5c-0.1-0.1-0.2-0.2-0.3-0.2L8.2,1.4c0,0-3.1-1.5-5.3-0.7
	C2.1,1.1,1.4,1.7,1,2.7c-1.3,3.2,1.3,5,2.3,5.4c0.1,0.1,0.2,0.2,0.2,0.3l-0.7,11H2.6c-1,0-1.9,0.8-1.9,1.9v1.3c0,1,0.8,1.9,1.9,1.9
	h25.9c1,0,1.9-0.8,1.9-1.9v-1.3C30.3,20.3,29.5,19.4,28.5,19.4z M24,8c0.7,0,1.3,0.6,1.3,1.3c0,0.7-0.6,1.3-1.3,1.3
	c-0.7,0-1.3-0.6-1.3-1.3C22.8,8.6,23.3,8,24,8z M5.1,6.2c-1,0-1.8-0.8-1.8-1.8s0.8-1.8,1.8-1.8s1.8,0.8,1.8,1.8S6.1,6.2,5.1,6.2z"/>
</svg>
