<svg xmlns="http://www.w3.org/2000/svg" viewBox="0 0 25 25">
<path d="M12.5,0.5c-6.7,0-12.2,5.4-12.2,12c0,6.6,5.5,12,12.2,12s12.2-5.4,12.2-12
	C24.7,5.9,19.2,0.5,12.5,0.5z M12.5,15.2c-1.5,0-2.7-1.2-2.7-2.7c0-1.5,1.2-2.7,2.7-2.7c0.4,0,0.7,0.1,1.1,0.2l-1.1,1.6
	c-0.5,0-0.8,0.4-0.8,0.9c0,0.5,0.4,0.9,0.9,0.9c0.5,0,0.9-0.4,0.9-0.9c0,0,0-0.1,0-0.1l1.1-1.7c0.4,0.5,0.7,1.1,0.7,1.8
	C15.2,14,14,15.2,12.5,15.2z M14.9,10.1l-1-0.6L15.6,7l1,0.6L14.9,10.1z M17.1,6.4c-1.3-1-2.9-1.5-4.6-1.5c-4.2,0-7.7,3.4-7.7,7.6
	H2.1c0-5.7,4.7-10.3,10.4-10.3c2.3,0,4.4,0.7,6.2,2.1L17.1,6.4z"/>
</svg>
