<svg xmlns="http://www.w3.org/2000/svg" viewBox="0 0 40 25">
<path d="M39,14.3l0-6.8l0,0c0,0,0,0,0,0l0-3.6c0-0.6-0.5-1.1-1.1-1.1s-1.1,0.5-1.1,1.1l0,2.4h-3V2.7H31V0.5H20.3v2.2
	H1v21.8h32.8v-2.3h3v1.1c0,0.6,0.5,1.1,1.1,1.1S39,24,39,23.4l0-2.3c0,0,0,0,0,0l0,0L39,14.3L39,14.3C39,14.3,39,14.3,39,14.3z
	 M18.6,19.2c0.3-0.5,0.6-1,0.6-1.5c0-1.4-0.6-2.4-1.8-3.7c-1.2,1.3-1.8,2.3-1.8,3.7c0,0.5,0.2,1,0.6,1.5c-1.5-0.6-2.6-2.1-2.6-4
	c0-2.3,1.9-4.9,3.9-7.1c0,4.1,3.9,4.1,3.9,7.1C21.2,17.1,20.1,18.6,18.6,19.2z M33.8,8.6h3l0,4.6h-3V8.6z M33.8,19.9v-4.6h3l0,4.6
	H33.8z"/>
</svg>
