<svg version="1.1" baseProfile="tiny" id="Layer_1" xmlns="http://www.w3.org/2000/svg" xmlns:xlink="http://www.w3.org/1999/xlink"
	 x="0px" y="0px" viewBox="0 0 24 25" xml:space="preserve">
<path fill="#231F20" d="M4.7,24.5c-0.3,0-0.6-0.1-0.8-0.3l-2.7-2.3c-0.3-0.2-0.4-0.5-0.4-0.9c0-0.3,0.1-0.7,0.3-0.9l8.1-9.7
	C8.9,9.8,8.8,9.2,8.8,8.6c-0.2-2,0.4-3.9,1.7-5.5c1.3-1.5,3.1-2.5,5.1-2.6c2.9-0.2,5.7,1.2,7.1,3.7l0.2,0.3l-6.2,0.5
	c-1.7,0.1-2.9,1.6-2.8,3.3c0.1,0.8,0.4,1.5,1.1,2.1c0.6,0.5,1.4,0.8,2.2,0.7l6-0.5L23.1,11c-1.1,2.5-3.5,4.3-6.2,4.5
	c-1.2,0.1-2.3-0.1-3.5-0.6l-7.7,9.1C5.5,24.3,5.1,24.5,4.7,24.5z"/>
</svg>
