<?xml version="1.0" encoding="utf-8"?>
<!-- Generator: Adobe Illustrator 25.4.1, SVG Export Plug-In . SVG Version: 6.00 Build 0)  -->
<svg version="1.1" id="Layer_1" xmlns="http://www.w3.org/2000/svg" xmlns:xlink="http://www.w3.org/1999/xlink" x="0px" y="0px"
	 width="32px" height="32px" viewBox="0 0 32 32" style="enable-background:new 0 0 32 32;" xml:space="preserve">
<style type="text/css">
	.st0{fill:none;}
	.st1{fill:#FFFFFF;}
</style>
<rect class="st0" width="32" height="32"/>
<path class="st1" d="M16,32c-0.5,0-1-0.2-1.4-0.6l-4-4C10.2,27,10,26.5,10,26s0.2-1,0.6-1.4S11.5,24,12,24s1,0.2,1.4,0.6l0.6,0.6V18
	H6.8l0.6,0.6C7.8,19,8,19.5,8,20s-0.2,1-0.6,1.4S6.5,22,6,22s-1-0.2-1.4-0.6l-4-4C0.2,17,0,16.5,0,16s0.2-1,0.6-1.4l4-4
	C5,10.2,5.5,10,6,10s1,0.2,1.4,0.6S8,11.5,8,12s-0.2,1-0.6,1.4L6.8,14H14V6.8l-0.6,0.6C13,7.8,12.5,8,12,8s-1-0.2-1.4-0.6
	S10,6.5,10,6s0.2-1,0.6-1.4l4-4C15,0.2,15.5,0,16,0s1,0.2,1.4,0.6l4,4C21.8,5,22,5.5,22,6s-0.2,1-0.6,1.4S20.5,8,20,8
	s-1-0.2-1.4-0.6L18,6.8V14h7.2l-0.6-0.6C24.2,13,24,12.5,24,12s0.2-1,0.6-1.4S25.5,10,26,10s1,0.2,1.4,0.6l4,4
	C31.8,15,32,15.5,32,16s-0.2,1-0.6,1.4l-4,4C27,21.8,26.5,22,26,22s-1-0.2-1.4-0.6S24,20.5,24,20s0.2-1,0.6-1.4l0.6-0.6H18v7.2
	l0.6-0.6C19,24.2,19.5,24,20,24s1,0.2,1.4,0.6S22,25.5,22,26s-0.2,1-0.6,1.4l-4,4C17,31.8,16.5,32,16,32z"/>
<path d="M30.7,15.3l-4-4c-0.4-0.4-1-0.4-1.4,0s-0.4,1,0,1.4l2.3,2.3H17V4.4l2.3,2.3C19.5,6.9,19.7,7,20,7s0.5-0.1,0.7-0.3
	c0.4-0.4,0.4-1,0-1.4l-4-4c-0.4-0.4-1-0.4-1.4,0l-4,4c-0.4,0.4-0.4,1,0,1.4s1,0.4,1.4,0L15,4.4V15H4.4l2.3-2.3c0.4-0.4,0.4-1,0-1.4
	s-1-0.4-1.4,0l-4,4c-0.4,0.4-0.4,1,0,1.4l4,4C5.5,20.9,5.7,21,6,21s0.5-0.1,0.7-0.3c0.4-0.4,0.4-1,0-1.4L4.4,17H15v10.6l-2.3-2.3
	c-0.4-0.4-1-0.4-1.4,0s-0.4,1,0,1.4l4,4c0.2,0.2,0.5,0.3,0.7,0.3s0.5-0.1,0.7-0.3l4-4c0.4-0.4,0.4-1,0-1.4s-1-0.4-1.4,0L17,27.6V17
	h10.6l-2.3,2.3c-0.4,0.4-0.4,1,0,1.4c0.2,0.2,0.5,0.3,0.7,0.3s0.5-0.1,0.7-0.3l4-4C31.1,16.3,31.1,15.7,30.7,15.3z"/>
</svg>
