<?xml version="1.0" encoding="utf-8"?>
<!-- Generator: Adobe Illustrator 25.4.1, SVG Export Plug-In . SVG Version: 6.00 Build 0)  -->
<svg version="1.1" id="Layer_1" xmlns="http://www.w3.org/2000/svg" xmlns:xlink="http://www.w3.org/1999/xlink" x="0px" y="0px"
	 width="32px" height="32px" viewBox="0 0 32 32" style="enable-background:new 0 0 32 32;" xml:space="preserve">
<style type="text/css">
	.st0{fill:none;}
	.st1{fill:#FFFFFF;}
</style>
<rect class="st0" width="32" height="32"/>
<path class="st1" d="M16,29.5c-0.5,0-1.1-0.2-1.5-0.6C14.2,28.5,14,28,14,27.4s0.2-1,0.6-1.4l0.1-0.1C6.2,25.6,0,21.9,0,17
	c0-4.7,5.8-8.4,14-8.9V4c0-1.1,0.9-2,2-2s2,0.9,2,2v4.1c8.2,0.5,14,4.2,14,8.9c0,2.4-1.5,4.5-4.2,6.2c-0.3,0.2-0.7,0.3-1,0.3
	c0,0,0,0,0,0c-0.7,0-1.4-0.4-1.7-1c-0.6-0.9-0.3-2.2,0.7-2.7c1.4-0.9,2.2-1.9,2.2-2.8c0-1.8-3.5-4.4-10-4.9V16c0,1.1-0.9,2-2,2
	c0.5,0,1,0.2,1.4,0.5l4,3.7c0.4,0.4,0.6,0.9,0.6,1.5s-0.2,1.1-0.6,1.5l-4,3.8C17,29.3,16.5,29.5,16,29.5z M14,12.1
	C7.5,12.6,4,15.2,4,17c0,2,4.2,4.8,11.2,5l-0.6-0.5c-0.4-0.4-0.6-0.9-0.6-1.4s0.2-1,0.5-1.4c0.4-0.4,0.9-0.6,1.4-0.6
	c-1.1,0-2-0.9-2-2V12.1z"/>
<path d="M17,9V4c0-0.6-0.4-1-1-1s-1,0.4-1,1v5C7.1,9.3,1,12.7,1,17c0,4.5,6.6,8,15,8c0.4,0,0.8,0,1.2,0l-1.9,1.8
	c-0.4,0.4-0.4,1,0,1.4c0.2,0.2,0.5,0.3,0.7,0.3c0.2,0,0.5-0.1,0.7-0.3l4-3.8c0.2-0.2,0.3-0.5,0.3-0.7s-0.1-0.5-0.3-0.7l-4-3.8
	c-0.4-0.4-1-0.4-1.4,0c-0.4,0.4-0.4,1,0,1.4l2.4,2.2C17.1,23,16.6,23,16,23c-7.8,0-13-3.1-13-6c0-2.8,4.8-5.7,12-6v5
	c0,0.6,0.4,1,1,1s1-0.4,1-1v-5c7.2,0.3,12,3.2,12,6c0,1.3-1,2.5-2.7,3.6c-0.5,0.3-0.6,0.9-0.3,1.4c0.3,0.5,0.9,0.6,1.4,0.3
	C29.7,20.9,31,19,31,17C31,12.7,24.9,9.3,17,9z"/>
</svg>
