<?xml version="1.0" encoding="utf-8"?>
<!-- Generator: Adobe Illustrator 25.4.1, SVG Export Plug-In . SVG Version: 6.00 Build 0)  -->
<svg version="1.1" id="Layer_1" xmlns="http://www.w3.org/2000/svg" xmlns:xlink="http://www.w3.org/1999/xlink" x="0px" y="0px"
	 width="32px" height="32px" viewBox="0 0 32 32" style="enable-background:new 0 0 32 32;" xml:space="preserve">
<style type="text/css">
	.st0{fill:none;}
	.st1{fill:#FFFFFF;}
</style>
<rect x="0" class="st0" width="32" height="32"/>
<path class="st1" d="M16,32c-0.6,0-1.2-0.2-1.7-0.5L1.2,21.9c-1-0.7-1.4-2-1-3.2c0.4-1.2,1.5-2,2.7-2h5.5L9.5,12H7.3
	c-1.3,0-2.4-0.8-2.7-2C4.1,8.8,4.6,7.5,5.6,6.7l8.7-6.2C14.8,0.2,15.4,0,16,0s1.2,0.2,1.7,0.5l8.7,6.2c1,0.7,1.5,2,1.1,3.2
	c-0.4,1.2-1.5,2-2.7,2h-2.2l1.1,4.8h5.5c1.2,0,2.3,0.8,2.7,2c0.4,1.2,0,2.5-1,3.2l-13.1,9.5C17.2,31.8,16.6,32,16,32z M16,27.9
	l10-7.3h-5.6L17.7,8.1h3.9l-5.6-4l-5.6,4h3.9l-2.8,12.5H6L16,27.9z"/>
<path d="M16,2.9l8.7,6.2H19l2.3,10.5h7.8L16,29.1L2.9,19.6h7.8L13,9.1H7.3L16,2.9 M16,1c-0.4,0-0.8,0.1-1.1,0.3L6.2,7.5
	C5.5,8,5.2,8.9,5.5,9.6c0.2,0.8,1,1.3,1.8,1.3h3.4l-1.5,6.8H2.9c-0.8,0-1.5,0.5-1.8,1.3c-0.3,0.8,0,1.6,0.7,2.1l13.1,9.5
	c0.3,0.2,0.7,0.4,1.1,0.4c0.4,0,0.8-0.1,1.1-0.4l13.1-9.5c0.7-0.5,0.9-1.3,0.7-2.1c-0.3-0.8-1-1.3-1.8-1.3h-6.3L21.3,11h3.4
	c0.8,0,1.5-0.5,1.8-1.3s0-1.6-0.7-2.1l-8.7-6.2C16.8,1.1,16.4,1,16,1L16,1z"/>
</svg>
