<?xml version="1.0" encoding="utf-8"?>
<!-- Generator: Adobe Illustrator 22.1.0, SVG Export Plug-In . SVG Version: 6.00 Build 0)  -->
<svg version="1.1" id="Layer_1" xmlns="http://www.w3.org/2000/svg" xmlns:xlink="http://www.w3.org/1999/xlink" x="0px" y="0px"
	 width="64px" height="64px" viewBox="0 0 64 64" enable-background="new 0 0 64 64" xml:space="preserve">
<g>
	<path d="M32,64L4,48V16L32,0l28,16v32L32,64z M8,45.6l24,13.7l24-13.7V18.4L32,4.7L8,18.4V45.6z"/>
	<path d="M15.1,24.7c-0.3,0-0.7-0.1-1-0.2l-8.5-4.7c-1-0.5-1.3-1.8-0.8-2.8s1.7-1.4,2.7-0.8l8.5,4.7c1,0.5,1.3,1.8,0.8,2.8
		C16.5,24.3,15.8,24.7,15.1,24.7z"/>
	<path d="M48.9,24.7c-0.7,0-1.4-0.4-1.8-1.1c-0.5-1-0.2-2.2,0.8-2.8l8.6-4.7c1-0.5,2.2-0.2,2.7,0.8s0.2,2.2-0.8,2.8l-8.6,4.7
		C49.6,24.6,49.2,24.7,48.9,24.7z"/>
	<path d="M32,62.8c-1.1,0-2-0.9-2-2l-0.1-10c0-1.1,0.9-2.1,2-2.1l0,0c1.1,0,2,0.9,2,2l0.1,10C34,61.9,33.2,62.8,32,62.8L32,62.8z"/>
</g>
<g>
	<path d="M32,45c-1.9,0-3.7-0.2-5.5-0.7s-3.6-1.1-5.3-2.1c-1.7-0.9-3.3-2.1-4.7-3.4c-1.5-1.4-2.8-3-3.8-4.8L12,33l0.6-1
		c1.1-1.8,2.4-3.4,3.9-4.8s3.1-2.5,4.8-3.4c1.7-0.9,3.5-1.6,5.3-2c3.6-0.9,7.3-0.9,10.9,0c1.8,0.5,3.6,1.1,5.3,2.1
		c1.7,0.9,3.3,2,4.7,3.4c1.5,1.4,2.8,3,3.9,4.8l0.6,1l-0.6,1c-1.1,1.8-2.4,3.4-3.9,4.8c-1.5,1.4-3,2.5-4.7,3.4s-3.5,1.6-5.3,2.1
		C35.6,44.8,33.8,45,32,45z M16.6,33c0.7,1.1,1.5,2,2.5,2.9c1.2,1.1,2.5,2.1,3.9,2.8c1.4,0.8,2.9,1.3,4.4,1.7c3.1,0.8,6.2,0.7,9.2,0
		c1.5-0.4,3-1,4.4-1.7c1.4-0.8,2.7-1.7,3.9-2.9c0.9-0.9,1.8-1.8,2.5-2.9c-0.7-1.1-1.6-2-2.5-2.9c-1.2-1.1-2.5-2.1-3.9-2.8
		c-1.4-0.8-2.9-1.3-4.4-1.7c-3.1-0.8-6.1-0.8-9.1,0c-1.5,0.4-3,1-4.4,1.7c-1.4,0.8-2.7,1.7-3.9,2.8C18.2,30.9,17.4,31.9,16.6,33z"/>
	<path d="M36.7,28.6c-1.3-1.2-2.9-1.8-4.7-1.8s-3.4,0.6-4.7,1.8c-1.3,1.2-1.9,2.7-1.9,4.4c0,1.7,0.6,3.2,1.9,4.4s2.9,1.8,4.7,1.8
		c1.8,0,3.4-0.6,4.7-1.8s1.9-2.7,1.9-4.4C38.6,31.3,38,29.8,36.7,28.6z M36,32.2c-0.5,0-0.9-0.2-1.2-0.5s-0.5-0.7-0.5-1.2
		s0.2-0.9,0.5-1.2c0.3-0.3,0.7-0.5,1.2-0.5s1,0.2,1.3,0.5s0.5,0.7,0.5,1.2s-0.2,0.8-0.5,1.2C37,32,36.6,32.2,36,32.2z"/>
</g>
</svg>
