<svg xmlns="http://www.w3.org/2000/svg" viewBox="0 0 27 25">
<path d="M26.2,20.9c0-0.3-0.1-0.6-0.2-0.9c-0.1-0.3-0.2-0.7-0.4-1l-9-16.4c-0.8-1.3-1.8-2-3.1-2
	c-1.3,0-2.4,0.7-3.2,2L1.4,18.9c-0.2,0.4-0.3,0.7-0.4,1c-0.1,0.3-0.2,0.8-0.2,1.2c0,0.5,0.1,1,0.3,1.4C1.3,23,1.6,23.3,2,23.6
	c0.4,0.3,0.8,0.5,1.2,0.6c0.4,0.2,0.9,0.2,1.3,0.2h17.9c0.9,0,1.8-0.3,2.6-0.9c0.8-0.6,1.2-1.4,1.2-2.5L26.2,20.9z M15.1,5.6
	l-0.4,10.9h-2.5L11.9,5.6H15.1z M14.8,20.8c-0.3,0.3-0.8,0.5-1.3,0.5c-0.6,0-1-0.2-1.3-0.5c-0.3-0.3-0.5-0.7-0.5-1.2
	c0-0.5,0.2-1,0.5-1.3c0.3-0.3,0.8-0.5,1.3-0.5c0.5,0,1,0.2,1.3,0.5c0.3,0.3,0.5,0.7,0.5,1.3C15.3,20.1,15.2,20.5,14.8,20.8z"/>
</svg>
