<svg xmlns="http://www.w3.org/2000/svg" viewBox="0 0 26 25">
	<path d="M13,0.5c-6.6,0-12,5.4-12,12s5.4,12,12,12s12-5.4,12-12S19.6,0.5,13,0.5z M16.2,17.3
		c-0.6,0.7-1.4,1.1-2.4,1.2V20h-1.6v-1.5c-0.7-0.1-1.4-0.4-2-0.9C9.4,17,9,16,8.9,14.8l0-0.2l2.3-0.3l0,0.2c0.1,0.4,0.2,0.7,0.5,1
		c0.1,0.2,0.3,0.3,0.5,0.5l0-2.8c-0.9-0.3-1.7-0.8-2.3-1.5c-0.6-0.7-0.9-1.4-0.9-2.2c0-0.4,0.1-0.8,0.2-1.2C9.3,8,9.6,7.6,9.9,7.3
		c0.3-0.3,0.7-0.6,1.1-0.9C11.3,6.2,11.7,6,12.1,6V5h1.6v1c1.7,0.2,2.8,1.2,3.2,3l0,0.2l-2.1,0.3l0-0.2c-0.1-0.3-0.2-0.6-0.4-0.8
		c-0.2-0.2-0.4-0.3-0.6-0.3v3c1.2,0.3,2.1,0.8,2.6,1.4c0.5,0.7,0.8,1.4,0.8,2.1C17.1,15.7,16.8,16.6,16.2,17.3
		M11.3,9.5c0,0.5,0.3,0.9,0.8,1.2V8.3c-0.2,0.1-0.3,0.2-0.5,0.4C11.4,8.9,11.3,9.2,11.3,9.5
		M13.7,13.6v2.6c0.3-0.1,0.5-0.3,0.7-0.5c0.2-0.3,0.4-0.6,0.4-0.9C14.7,14.4,14.4,13.9,13.7,13.6z"/>
</svg>
