<svg xmlns="http://www.w3.org/2000/svg" viewBox="0 0 25 25">
<path d="M0.4,23.5c0,0.2,0,0.6,0.2,0.8c0.2,0.2,0.4,0.2,0.8,0.2c1-0.9,7.7-7.6,7.8-7.7l0.2-0.2l5.4,5.4
		c1.1-1.1,1.7-2.4,2.1-3.8c0.3-1.5,0.3-3-0.2-4.4l-0.1-0.2l0.2-0.1c0.6-0.2,1.2-0.4,1.9-0.7c0.7-0.3,1.4-0.5,2.1-0.8
		c0.7-0.3,1.3-0.6,1.9-0.9c0.6-0.3,1-0.6,1.3-1c0.2-0.2,0.5-0.7,0.6-0.8c0.2-0.4,0.3-1.6-3.5-5.3c-2.5-2.5-4.6-3.6-5.4-3.4
		c-0.3,0.1-0.6,0.2-0.8,0.4c-0.3,0.3-0.7,0.8-1,1.4c-0.3,0.6-0.6,1.2-0.9,1.9c-0.3,0.7-0.6,1.4-0.8,2.1c-0.3,0.7-0.5,1.3-0.6,1.9
		l-0.1,0.3l-0.2-0.1c-1.5-0.5-3-0.5-4.5-0.2c-1.4,0.3-2.7,1-3.8,2.1l5.4,5.4L0.4,23.5z"/>
</svg>
