<svg xmlns="http://www.w3.org/2000/svg" viewBox="0 0 26 26" style="enable-background:new 0 0 26 26;" >
<path class="st0" d="M13,1C6.4,1,1,6.4,1,13c0,6.6,5.4,12,12,12s12-5.4,12-12C25,6.4,19.6,1,13,1z M14.4,20.8
	c-0.4,0.3-0.8,0.5-1.4,0.5s-1.1-0.2-1.4-0.5c-0.3-0.3-0.5-0.8-0.5-1.3s0.2-1,0.5-1.3c0.3-0.3,0.8-0.5,1.4-0.5s1,0.2,1.4,0.5
	c0.3,0.3,0.5,0.8,0.5,1.3C14.9,20.1,14.7,20.5,14.4,20.8z M18.6,11.1c-0.2,0.5-0.5,0.9-0.8,1.2c-0.21,0.21-0.33,0.33-1.3,1.1
	c-0.97,0.77-0.96,0.76-1,0.8c-0.37,0.36-0.8,0.98-1,2.1c-1.03,0-2.07,0-3.1,0c0-0.7,0.2-1.3,0.4-1.8s0.5-0.9,0.8-1.2
	c0.3-0.3,0.7-0.7,1.3-1.1c0.4-0.4,0.7-0.6,0.9-0.8c0.2-0.2,0.4-0.5,0.6-0.8c0.1-0.3,0.2-0.6,0.2-1c0-0.7-0.2-1.2-0.6-1.6
	c-0.4-0.4-1-0.6-1.7-0.6c-0.8,0-1.5,0.2-2,0.6c-0.6,0.4-1.1,1-1.5,1.9L7.1,8.6c0.5-1.2,1.3-2.1,2.3-2.8s2.3-1.1,3.8-1.1
	c1.2,0,2.2,0.2,3,0.6s1.5,0.9,2,1.6c0.5,0.7,0.7,1.5,0.7,2.5C18.9,10,18.8,10.6,18.6,11.1z"/>
</svg>
