<svg xmlns="http://www.w3.org/2000/svg" viewBox="0 0 23 25">
<path d="M22.2,13.4c-0.1-4.4-2.9-8.1-6.8-9.6h0V0.5H7.5v1.2L2.9,1.9c-0.5,0-0.8,0.4-0.8,0.8v5.9
	c-0.8,1.4-1.3,3.1-1.3,4.8c0,0,0,0.1,0,0.1v9.9c0,0.6,0.5,1.1,1.1,1.1S3,24,3,23.4v-3.2c2,2.6,5,4.2,8.5,4.2s6.6-1.7,8.5-4.2v3.2
	c0,0.6,0.5,1.1,1.1,1.1c0.6,0,1.1-0.5,1.1-1.1L22.2,13.4C22.2,13.5,22.2,13.5,22.2,13.4z M7.5,3.8C6.1,4.4,4.8,5.2,3.8,6.3V3.5
	l3.7-0.1V3.8z M12.5,18.3c0.3-0.4,0.5-0.8,0.5-1.3c0-1.1-0.5-2-1.5-3c-1,1.1-1.5,1.9-1.5,3c0,0.4,0.2,0.9,0.5,1.3
	c-1.3-0.5-2.2-1.8-2.2-3.3c0-1.9,1.5-4.1,3.2-5.9c0,3.3,3.2,3.3,3.2,5.9C14.6,16.6,13.7,17.9,12.5,18.3z"/>
</svg>
