<svg xmlns="http://www.w3.org/2000/svg" viewBox="0 0 41 25">
<path d="M38.1,7.8C38,7.5,37.4,5.9,36,5.9h-6v9h-5l2-6c0.1-0.2,0-0.5-0.2-0.6l-6.2-5.1c-0.1,0-10.1-2.8-10.1-2.8
	L2.2,2C2,2.1,1.8,2.2,1.7,2.4l-1,2.1C0.6,4.7,0.7,4.9,0.9,5.1l4.9,7.7c0,0,1.9,1.1,3.9,2.1H1v5.4h2.3h0.4c-0.1,0.3-0.1,0.6-0.1,0.9
	c0,1.8,1.5,3.3,3.3,3.3c1.8,0,3.3-1.5,3.3-3.3c0-0.3-0.1-0.6-0.1-0.9h4c-0.1,0.3-0.1,0.6-0.1,0.9c0,1.8,1.5,3.3,3.3,3.3
	c1.8,0,3.3-1.5,3.3-3.3c0-0.3-0.1-0.6-0.1-0.9h10.2c-0.1,0.3-0.1,0.6-0.1,0.9c0,1.8,1.5,3.3,3.3,3.3c1.8,0,3.3-1.5,3.3-3.3
	c0-0.3-0.1-0.6-0.1-0.9h0.4h3.2v-6.9L38.1,7.8z"/>
</svg>
