<svg xmlns="http://www.w3.org/2000/svg" viewBox="0 0 53 25" >
<path d="M52.4,13.2l-2.3-5.8c-0.1-0.2-0.7-1.9-2.2-1.9h-6.1v7.1h-5.2c1.6-0.6,2.7-2.1,2.7-3.9V4.6
	c0-2.3-1.9-4.1-4.1-4.1H4.7c-2.3,0-4.1,1.9-4.1,4.1v4.1c0,1.8,1.1,3.3,2.7,3.9H0.6v7.7H3h0.4c-0.1,0.3-0.1,0.6-0.1,0.9
	c0,1.8,1.5,3.3,3.3,3.3c1.8,0,3.3-1.5,3.3-3.3c0-0.3-0.1-0.6-0.1-0.9h4.1c-0.1,0.3-0.1,0.6-0.1,0.9c0,1.8,1.5,3.3,3.3,3.3
	c1.8,0,3.3-1.5,3.3-3.3c0-0.3-0.1-0.6-0.1-0.9h4.1c-0.1,0.3-0.1,0.6-0.1,0.9c0,1.8,1.5,3.3,3.3,3.3c1.8,0,3.3-1.5,3.3-3.3
	c0-0.3-0.1-0.6-0.1-0.9h12.5c-0.1,0.3-0.1,0.6-0.1,0.9c0,1.8,1.5,3.3,3.3,3.3c1.8,0,3.3-1.5,3.3-3.3c0-0.3-0.1-0.6-0.1-0.9h2.7V13.2
	z"/>
</svg>
